<svg xmlns="http://www.w3.org/2000/svg" width="170.805" height="48.215" viewBox="0 0 170.805 48.215">
  <g id="brand" transform="translate(-415.149 -12.003)">
    <path id="Path_3024" data-name="Path 3024" d="M1.512,0H5.124V-5.418H9.2V0H12.81V-13.65H9.2v5.082H5.124V-13.65H1.512ZM14.994-5.25A5.2,5.2,0,0,0,20.2.252a5.2,5.2,0,0,0,5.208-5.5,5.2,5.2,0,0,0-5.208-5.5A5.2,5.2,0,0,0,14.994-5.25Zm3.7,0c0-1.6.42-2.6,1.512-2.6s1.512,1.008,1.512,2.6-.42,2.6-1.512,2.6S18.69-3.654,18.69-5.25ZM27.3-3.7c0,2.352.8,3.948,3.234,3.948A4.468,4.468,0,0,0,32.3-.042l-.42-2.646a1.3,1.3,0,0,1-.378.042c-.252,0-.588-.21-.588-.924V-14.616H27.3ZM35.364-11.8a1.85,1.85,0,0,0,2.016-1.806,1.85,1.85,0,0,0-2.016-1.806,1.85,1.85,0,0,0-2.016,1.806A1.85,1.85,0,0,0,35.364-11.8ZM33.558,0H37.17V-10.5H33.558Zm5.586-5.25c0,3.4,1.68,5.5,4.284,5.5A3.976,3.976,0,0,0,46.074-.966h.084L46.41,0h2.94V-14.616H45.738v3.4L45.864-9.7a3.151,3.151,0,0,0-2.436-1.05C41.286-10.752,39.144-8.694,39.144-5.25Zm3.7-.042c0-1.848.714-2.52,1.47-2.52a2.129,2.129,0,0,1,1.428.5v3.864a1.439,1.439,0,0,1-1.344.756C43.428-2.688,42.84-3.4,42.84-5.292Zm8.61,2.31A3.087,3.087,0,0,0,54.6.252a4.259,4.259,0,0,0,2.9-1.26h.084L57.834,0h2.94V-5.838c0-3.444-1.638-4.914-4.368-4.914a8.849,8.849,0,0,0-4.62,1.386l1.26,2.352A5.724,5.724,0,0,1,55.692-7.9c.924,0,1.386.336,1.47,1.092C53.13-6.384,51.45-5.166,51.45-2.982Zm3.444-.294c0-.588.546-1.134,2.268-1.386v1.428a1.654,1.654,0,0,1-1.3.714C55.23-2.52,54.894-2.793,54.894-3.276Zm8.862,4.284-.63,2.73a5.439,5.439,0,0,0,1.6.21c2.6,0,3.738-1.281,4.83-4.116L73.08-10.5H69.636l-1.05,4.032c-.252,1.008-.462,1.974-.672,2.982H67.83c-.252-1.05-.462-2.016-.756-2.982L65.814-10.5H62.2L66.192-.378l-.126.462a1.507,1.507,0,0,1-1.638,1.05A3.459,3.459,0,0,1,63.756,1.008ZM80.346,0H84.84l1.008-5.418c.21-1.05.357-2.184.5-3.192h.084c.126,1.008.294,2.142.5,3.192L87.99,0h4.578l2.268-13.65H91.392l-.756,5.964c-.147,1.386-.315,2.835-.462,4.284H90.09c-.252-1.449-.5-2.919-.756-4.284l-1.3-5.964H85.008l-1.3,5.964c-.252,1.407-.5,2.856-.756,4.284h-.084c-.147-1.428-.315-2.856-.462-4.284l-.756-5.964h-3.7ZM95.718-5.25a5.2,5.2,0,0,0,5.208,5.5,5.2,5.2,0,0,0,5.208-5.5,5.2,5.2,0,0,0-5.208-5.5A5.2,5.2,0,0,0,95.718-5.25Zm3.7,0c0-1.6.42-2.6,1.512-2.6s1.512,1.008,1.512,2.6-.42,2.6-1.512,2.6S99.414-3.654,99.414-5.25ZM108.024,0h3.612V-5.838A2.412,2.412,0,0,1,113.82-7.6,4.958,4.958,0,0,1,115-7.434l.588-3.108a3.121,3.121,0,0,0-1.3-.21A3.522,3.522,0,0,0,111.3-8.694h-.084l-.252-1.806h-2.94ZM116.8-3.7c0,2.352.8,3.948,3.234,3.948A4.468,4.468,0,0,0,121.8-.042l-.42-2.646a1.3,1.3,0,0,1-.378.042c-.252,0-.588-.21-.588-.924V-14.616H116.8Zm5.8-1.554c0,3.4,1.68,5.5,4.284,5.5a3.976,3.976,0,0,0,2.646-1.218h.084l.252.966h2.94V-14.616h-3.612v3.4l.126,1.512a3.151,3.151,0,0,0-2.436-1.05C124.74-10.752,122.6-8.694,122.6-5.25Zm3.7-.042c0-1.848.714-2.52,1.47-2.52a2.13,2.13,0,0,1,1.428.5v3.864a1.439,1.439,0,0,1-1.344.756C126.882-2.688,126.294-3.4,126.294-5.292Z" transform="translate(453.149 41.417)" fill="#010101"/>
    <g id="Group_201" data-name="Group 201" transform="translate(415.157 12)">
      <g id="Group_200" data-name="Group 200" transform="translate(9.182 9.621)">
        <path id="Path_403" data-name="Path 403" d="M478.58,770.124a12.132,12.132,0,0,0,2.456.344l-.028,2.461-2.882-.032A11.1,11.1,0,0,1,478.58,770.124Z" transform="translate(-474.604 -766.691)" fill="#f47008"/>
        <path id="Path_404" data-name="Path 404" d="M478.449,798.851a12.149,12.149,0,0,1,2.463-.29l.028-2.461-2.883-.032A11.111,11.111,0,0,0,478.449,798.851Z" transform="translate(-474.545 -789.126)" fill="#f47008"/>
        <path id="Path_405" data-name="Path 405" d="M483,820.98a3.171,3.171,0,0,0,1.85,1.768l.032-2.8a11.448,11.448,0,0,0-2.225.256,7,7,0,0,0,.343.773Z" transform="translate(-478.52 -809.78)" fill="#f47008"/>
        <path id="Path_406" data-name="Path 406" d="M516.411,824.411a7.3,7.3,0,0,0-1.551-.7,7.828,7.828,0,0,1-.43.925,4.863,4.863,0,0,1-1.351,1.615,6.767,6.767,0,0,0,3.331-1.845Z" transform="translate(-504.831 -813.034)" fill="#f47008"/>
        <path id="Path_407" data-name="Path 407" d="M506.207,821.079a7.088,7.088,0,0,0,.363-.771,11.454,11.454,0,0,0-2.221-.3l-.032,2.8a3.171,3.171,0,0,0,1.89-1.729Z" transform="translate(-497.254 -809.828)" fill="#f47008"/>
        <path id="Path_408" data-name="Path 408" d="M515.907,747.574a7.317,7.317,0,0,0,1.568-.661,6.764,6.764,0,0,0-3.289-1.92,4.861,4.861,0,0,1,1.313,1.645,7.81,7.81,0,0,1,.409.935Z" transform="translate(-505.788 -744.96)" fill="#f47008"/>
        <path id="Path_409" data-name="Path 409" d="M504.617,798.828a12.2,12.2,0,0,1,2.457.339,11.1,11.1,0,0,0,.453-2.767l-2.882-.032Z" transform="translate(-497.513 -789.386)" fill="#f47008"/>
        <path id="Path_410" data-name="Path 410" d="M483.3,749.037a11.471,11.471,0,0,0,2.218.306l.032-2.8a3.17,3.17,0,0,0-1.889,1.726,6.987,6.987,0,0,0-.361.766Z" transform="translate(-479.083 -746.302)" fill="#f47008"/>
        <path id="Path_411" data-name="Path 411" d="M507.379,770.637a12.161,12.161,0,0,1-2.465.284l-.028,2.46,2.883.032a11.107,11.107,0,0,0-.39-2.777Z" transform="translate(-497.746 -767.135)" fill="#f47008"/>
        <path id="Path_412" data-name="Path 412" d="M531.77,767.194a6.742,6.742,0,0,0-1.365-3.8l-.072.042a8,8,0,0,1-1.754.751,11.868,11.868,0,0,1,.414,2.971Z" transform="translate(-518.234 -760.876)" fill="#f47008"/>
        <path id="Path_413" data-name="Path 413" d="M469.107,825.79a4.856,4.856,0,0,1-1.313-1.645,7.814,7.814,0,0,1-.406-.928,7.266,7.266,0,0,0-1.561.664,6.76,6.76,0,0,0,3.28,1.909Z" transform="translate(-463.969 -812.604)" fill="#f47008"/>
        <path id="Path_414" data-name="Path 414" d="M505.159,749.407a11.452,11.452,0,0,0,2.228-.251,7.033,7.033,0,0,0-.345-.779,3.171,3.171,0,0,0-1.851-1.768Z" transform="translate(-497.982 -746.357)" fill="#f47008"/>
        <path id="Path_415" data-name="Path 415" d="M468.6,746.358a4.863,4.863,0,0,1,1.35-1.615,6.767,6.767,0,0,0-3.321,1.835,7.256,7.256,0,0,0,1.544.7,7.882,7.882,0,0,1,.427-.918Z" transform="translate(-464.662 -744.743)" fill="#f47008"/>
        <path id="Path_416" data-name="Path 416" d="M529.837,800.466a6.739,6.739,0,0,0,1.451-3.763l-2.776-.031a11.876,11.876,0,0,1-.482,2.962,7.974,7.974,0,0,1,1.737.789Z" transform="translate(-517.76 -789.648)" fill="#f47008"/>
        <path id="Path_417" data-name="Path 417" d="M455.413,763.277a7.925,7.925,0,0,1-1.741-.8l-.06-.038a6.74,6.74,0,0,0-1.459,3.774l2.776.031a11.882,11.882,0,0,1,.484-2.969Z" transform="translate(-452.144 -760.047)" fill="#f47008"/>
        <path id="Path_418" data-name="Path 418" d="M455.284,798.791a11.872,11.872,0,0,1-.416-2.979l-2.777-.031a6.739,6.739,0,0,0,1.374,3.806l.062-.037a7.909,7.909,0,0,1,1.758-.759Z" transform="translate(-452.09 -788.878)" fill="#f47008"/>
      </g>
      <path id="Path_419" data-name="Path 419" d="M380.881,664.211a8.157,8.157,0,1,1,.273-2.405,43.281,43.281,0,0,0,6.454-6.825,16.265,16.265,0,0,0-3.121-4.294,16.071,16.071,0,0,0-27.433,11.363,13.213,13.213,0,0,0,1.035,5.619l11.457,24.3a3.616,3.616,0,0,0,1.46,1.631,4.06,4.06,0,0,0,4.238,0,3.808,3.808,0,0,0,1.491-1.631l11.425-24.3a13.205,13.205,0,0,0,1.036-5.619,16.22,16.22,0,0,0-.849-5.3,51.361,51.361,0,0,1-7.466,7.461Z" transform="translate(-357.053 -645.978)" fill="#f47008"/>
    </g>
  </g>
</svg>
